<svg xmlns="http://www.w3.org/2000/svg" version="1.1" xmlns:xlink="http://www.w3.org/1999/xlink" xmlns:svgjs="http://svgjs.dev/svgjs" viewBox="0 0 1422 800"><g stroke-width="3.5" stroke="#3b51dd" fill="none" stroke-linecap="butt"><line x1="180" y1="0" x2="0" y2="180" opacity="0.30"></line><line x1="180" y1="0" x2="360" y2="180" opacity="0.23"></line><line x1="540" y1="0" x2="360" y2="180" opacity="0.58"></line><line x1="720" y1="0" x2="540" y2="180" opacity="0.28"></line><line x1="720" y1="0" x2="900" y2="180" opacity="0.48"></line><line x1="900" y1="0" x2="1080" y2="180" opacity="0.41"></line><line x1="1260" y1="0" x2="1080" y2="180" opacity="0.21"></line><line x1="1440" y1="0" x2="1260" y2="180" opacity="0.72"></line><line x1="180" y1="180" x2="0" y2="360" opacity="0.21"></line><line x1="360" y1="180" x2="180" y2="360" opacity="0.20"></line><line x1="540" y1="180" x2="360" y2="360" opacity="0.93"></line><line x1="540" y1="180" x2="720" y2="360" opacity="0.13"></line><line x1="900" y1="180" x2="720" y2="360" opacity="0.09"></line><line x1="1080" y1="180" x2="900" y2="360" opacity="0.15"></line><line x1="1260" y1="180" x2="1080" y2="360" opacity="0.58"></line><line x1="1260" y1="180" x2="1440" y2="360" opacity="0.66"></line><line x1="180" y1="360" x2="0" y2="540" opacity="0.33"></line><line x1="360" y1="360" x2="180" y2="540" opacity="0.67"></line><line x1="540" y1="360" x2="360" y2="540" opacity="0.93"></line><line x1="540" y1="360" x2="720" y2="540" opacity="0.56"></line><line x1="900" y1="360" x2="720" y2="540" opacity="0.09"></line><line x1="1080" y1="360" x2="900" y2="540" opacity="0.98"></line><line x1="1080" y1="360" x2="1260" y2="540" opacity="0.16"></line><line x1="1260" y1="360" x2="1440" y2="540" opacity="0.83"></line><line x1="180" y1="540" x2="0" y2="720" opacity="0.28"></line><line x1="360" y1="540" x2="180" y2="720" opacity="0.77"></line><line x1="360" y1="540" x2="540" y2="720" opacity="0.69"></line><line x1="720" y1="540" x2="540" y2="720" opacity="0.66"></line><line x1="900" y1="540" x2="720" y2="720" opacity="0.84"></line><line x1="900" y1="540" x2="1080" y2="720" opacity="0.36"></line><line x1="1260" y1="540" x2="1080" y2="720" opacity="0.38"></line><line x1="1260" y1="540" x2="1440" y2="720" opacity="0.82"></line><line x1="0" y1="720" x2="180" y2="900" opacity="0.38"></line><line x1="360" y1="720" x2="180" y2="900" opacity="0.34"></line><line x1="540" y1="720" x2="360" y2="900" opacity="1.00"></line><line x1="540" y1="720" x2="720" y2="900" opacity="0.87"></line><line x1="900" y1="720" x2="720" y2="900" opacity="0.64"></line><line x1="1080" y1="720" x2="900" y2="900" opacity="0.47"></line><line x1="1080" y1="720" x2="1260" y2="900" opacity="0.91"></line><line x1="1260" y1="720" x2="1440" y2="900" opacity="0.71"></line></g></svg>